<?xml version="1.0" encoding="UTF-8" standalone="no"?>
<svg
   xmlns:dc="http://purl.org/dc/elements/1.1/"
   xmlns:cc="http://creativecommons.org/ns#"
   xmlns:rdf="http://www.w3.org/1999/02/22-rdf-syntax-ns#"
   xmlns:svg="http://www.w3.org/2000/svg"
   xmlns="http://www.w3.org/2000/svg"
   xmlns:sodipodi="http://sodipodi.sourceforge.net/DTD/sodipodi-0.dtd"
   xmlns:inkscape="http://www.inkscape.org/namespaces/inkscape"
   width="183.72301mm"
   height="25mm"
   viewBox="0 0 183.72301 25"
   version="1.1"
   id="svg8"
   inkscape:version="1.0.2 (e86c8708, 2021-01-15)"
   sodipodi:docname="drawing.svg">
  <defs
     id="defs2" />
  <sodipodi:namedview
     id="base"
     pagecolor="#ffffff"
     bordercolor="#666666"
     borderopacity="1.0"
     inkscape:pageopacity="0.0"
     inkscape:pageshadow="2"
     inkscape:zoom="0.94404711"
     inkscape:cx="280.61022"
     inkscape:cy="205.68939"
     inkscape:document-units="mm"
     inkscape:current-layer="layer1"
     inkscape:document-rotation="0"
     showgrid="false"
     inkscape:window-width="1440"
     inkscape:window-height="847"
     inkscape:window-x="0"
     inkscape:window-y="25"
     inkscape:window-maximized="0" />
  <metadata
     id="metadata5">
    <rdf:RDF>
      <cc:Work
         rdf:about="">
        <dc:format>image/svg+xml</dc:format>
        <dc:type
           rdf:resource="http://purl.org/dc/dcmitype/StillImage" />
        <dc:title />
      </cc:Work>
    </rdf:RDF>
  </metadata>
  <g
     inkscape:label="Layer 1"
     inkscape:groupmode="layer"
     id="layer1">
    <path
       style="fill:#909fb6;fill-opacity:1;stroke-width:0.0442834"
       d="M 1.5351347,24.961557 C 1.3335582,24.900556 0.66653559,24.434163 0.52464227,24.255009 0.1473166,23.778595 -0.03855848,23.030419 0.00667855,22.170109 0.07920739,20.790822 0.60484921,18.589365 1.3663052,16.475783 2.9336435,12.125308 5.8298334,5.9921678 8.6161812,1.1230178 9.1397937,0.20800487 9.1885037,0.13827948 9.3120543,0.12694015 L 9.4449044,0.11475351 14.648199,12.406009 c 2.861813,6.760192 5.209938,12.310513 5.218057,12.334044 0.0093,0.02694 -0.523017,0.04257 -1.439209,0.04221 l -1.453971,-5.23e-4 -1.966152,-4.726697 c -1.081383,-2.599683 -1.972375,-4.734234 -1.979981,-4.74345 -0.02484,-0.03007 -0.868533,0.08651 -1.418023,0.19597 -1.7416464,0.346953 -3.1922074,1.049829 -4.3103241,2.088581 -1.0864785,1.009358 -1.9593351,2.472534 -2.9069382,4.872926 -0.6351072,1.608805 -1.2163264,2.300106 -2.0896275,2.485401 -0.2650307,0.05623 -0.5944728,0.05929 -0.7668955,0.0071 z M 2.6621167,24.56195 C 3.1877481,24.310706 3.625871,23.726966 3.996685,22.783804 4.9504336,20.357961 5.6842997,18.999176 6.6002385,17.963191 7.6346334,16.793226 9.0063369,15.96283 10.68484,15.490459 c 0.49776,-0.140079 1.460949,-0.3286 1.962476,-0.38411 0.182723,-0.02024 0.27265,-0.04854 0.25935,-0.08162 C 12.821029,14.81161 7.8133796,3.1818388 7.7868043,3.1343475 7.764157,3.0939171 7.5196239,3.5286821 7.0647483,4.4181502 3.0921274,12.186246 1.099015,17.069471 0.4066149,20.730898 c -0.22407733,1.184955 -0.18671193,2.382928 0.0941405,3.017983 0.21273799,0.481038 0.40988963,0.656149 0.9493134,0.843164 0.3844336,0.133285 0.8968585,0.120559 1.2120479,-0.03007 z m 44.8664823,0.392635 c -0.247039,-0.0775 -0.879251,-0.54047 -1.050902,-0.769584 -0.183178,-0.244502 -0.361078,-0.699979 -0.431253,-1.104147 -0.190764,-1.098706 0.250639,-3.469145 1.12202,-6.025473 1.426934,-4.186144 4.375255,-10.5068014 7.349144,-15.7552175 0.657592,-1.16054505 0.674837,-1.18572381 0.803665,-1.17351102 0.13138,0.0124482 0.142034,0.0369784 5.27996,12.16826452 2.831574,6.685681 5.178418,12.230515 5.215208,12.321847 l 0.0669,0.166062 H 64.432043 62.98075 l -1.969242,-4.721691 c -1.083073,-2.596932 -1.993301,-4.730986 -2.022726,-4.742346 -0.08982,-0.03468 -1.286946,0.155471 -1.850691,0.293949 -2.090637,0.51355 -3.642117,1.505689 -4.794351,3.065898 -0.398664,0.539821 -0.667043,0.987113 -1.032102,1.720137 -0.278985,0.560199 -0.446828,0.940668 -1.077388,2.44225 -0.543246,1.293657 -1.0733,1.888914 -1.865813,2.095339 -0.287519,0.07489 -0.635143,0.08243 -0.839834,0.0182 z m 1.164028,-0.409022 c 0.594403,-0.304985 1.01633,-0.932314 1.493452,-2.220463 0.345335,-0.932341 0.986337,-2.285373 1.426407,-3.01087 1.462699,-2.411387 3.594201,-3.722931 6.774643,-4.168549 0.297276,-0.04163 0.534481,-0.08734 0.527122,-0.101531 -0.0074,-0.01417 -1.166785,-2.712035 -2.576508,-5.9952111 -2.208015,-5.1423662 -2.570916,-5.9587563 -2.619333,-5.8925404 -0.113963,0.1558478 -2.89163,5.743607 -3.398064,6.8357866 -2.253164,4.8591909 -3.498589,8.3151039 -3.939328,10.9311839 -0.124963,0.741717 -0.154323,1.667514 -0.06843,2.157485 0.108503,0.618962 0.380682,1.132145 0.699071,1.318078 0.545221,0.318395 1.229825,0.378115 1.68097,0.146631 z m 97.507453,0.394523 c -0.093,-0.03316 -0.20255,-0.08869 -0.24356,-0.123414 -0.041,-0.03473 -0.16538,-0.114926 -0.27639,-0.178213 -0.43682,-0.249062 -0.76725,-0.756681 -0.90988,-1.397787 -0.0579,-0.260454 -0.0683,-0.475661 -0.0499,-1.042575 0.0311,-0.961071 0.23395,-2.092002 0.62995,-3.512437 1.14124,-4.093551 4.43136,-11.3542428 7.95769,-17.5612195 0.76663,-1.34941713 0.67761,-1.35251871 1.27025,0.044301 0.24543,0.5784523 2.59621,6.1285324 5.22394,12.3335105 l 4.7777,11.281777 -1.45996,-0.01166 -1.45996,-0.01166 -1.34672,-3.232687 c -0.74069,-1.777974 -1.62861,-3.906484 -1.97316,-4.730018 l -0.62645,-1.497331 -0.29185,0.02939 c -0.48646,0.04901 -1.45856,0.236636 -1.97463,0.381144 -2.1573,0.604092 -3.77209,1.819241 -4.90629,3.692056 -0.33463,0.552531 -0.80381,1.504298 -1.15657,2.34617 -0.78518,1.873861 -0.91537,2.127343 -1.31629,2.562992 -0.13724,0.149127 -0.35644,0.335065 -0.48712,0.413185 -0.42657,0.255035 -1.0121,0.345991 -1.38081,0.21449 z m 0.99374,-0.313468 c 0.66503,-0.232143 1.13435,-0.864703 1.64951,-2.223252 0.646,-1.703588 1.44508,-3.214005 2.18584,-4.131706 0.3812,-0.472251 1.11639,-1.164729 1.60776,-1.514361 0.50794,-0.361409 1.49181,-0.860016 2.12384,-1.076316 0.65207,-0.223156 1.41901,-0.404476 2.16988,-0.513 0.35317,-0.05105 0.64969,-0.09988 0.65895,-0.108534 0.0196,-0.01825 -5.07784,-11.8920302 -5.12725,-11.943324 -0.0366,-0.037972 -2.50411,4.8522666 -3.25723,6.4553646 -2.14321,4.5620774 -3.45645,8.0611194 -4.00547,10.6722934 -0.22553,1.072618 -0.28344,1.574797 -0.25315,2.195113 0.0438,0.896021 0.23392,1.478972 0.59701,1.830151 0.35518,0.343543 1.17909,0.522059 1.65031,0.357571 z m -44.00103,0.260213 c -1.46686,-0.157715 -2.81086,-0.548179 -4.162635,-1.209328 -3.700394,-1.809863 -6.219765,-5.288694 -6.864266,-9.4784 -0.09944,-0.646499 -0.135486,-2.109848 -0.06938,-2.816929 0.147772,-1.5804771 0.538462,-2.9465319 1.265078,-4.4234014 1.775615,-3.6089622 5.153376,-6.10461934 9.196943,-6.79514699 2.41255,-0.41199746 4.9246,-0.0414241 7.1882,1.06040009 3.58867,1.7468167 6.04464,5.0075861 6.83751,9.0781393 0.67688,3.475092 -0.24084,7.127215 -2.50374,9.963758 -0.40651,0.509569 -1.40539,1.505824 -1.92176,1.916718 -1.34743,1.0722 -2.98505,1.880834 -4.73689,2.339015 -1.08278,0.283195 -1.68461,0.359929 -2.9227,0.372634 -0.62108,0.0064 -1.20894,0.0031 -1.30636,-0.0075 z m 3.85971,-0.521332 c 2.63055,-0.552552 4.54164,-2.069736 5.80543,-4.608831 1.47313,-2.959712 1.69868,-7.16935 0.56705,-10.5837287 -1.33246,-4.0203529 -4.14713,-7.2140747 -7.3368,-8.32486891 -1.02059,-0.35541587 -2.15856,-0.50778552 -3.16584,-0.42389644 -1.19005,0.0991093 -2.20863,0.38009252 -3.227935,0.89043565 -1.778518,0.8904723 -3.189056,2.523357 -4.027811,4.662725 -0.603077,1.5382369 -0.877323,3.0998323 -0.880064,5.0112264 -0.0031,2.302052 0.415125,4.282569 1.324829,6.270713 1.785678,3.902587 5.003031,6.710641 8.210651,7.166128 0.18267,0.02594 0.38195,0.05582 0.44284,0.06639 0.0609,0.01056 0.47937,0.01192 0.92995,0.0031 0.66381,-0.01313 0.9214,-0.03766 1.3577,-0.12932 z m -2.78849,-5.107019 c -0.11606,-1.849237 -1.01173,-3.660915 -2.38571,-4.825566 -1.1996,-1.016847 -2.599789,-1.597046 -4.054869,-1.680229 -0.436073,-0.02495 -0.498188,-0.03823 -0.498188,-0.106751 0,-0.06451 0.05255,-0.08289 0.298913,-0.104549 0.619536,-0.05447 1.049155,-0.121218 1.449264,-0.225176 2.89123,-0.751204 5.0074,-3.3140501 5.18914,-6.2844633 0.0241,-0.3934246 0.0402,-0.4678992 0.10159,-0.4678992 0.0614,0 0.0814,0.09287 0.12609,0.5867529 0.19589,2.1631031 1.29501,4.0243746 3.08391,5.2223066 1.06774,0.71501 2.04267,1.037339 3.53429,1.168479 0.24637,0.02165 0.29891,0.04006 0.29891,0.104549 0,0.06853 -0.062,0.08178 -0.49818,0.106453 -1.1391,0.06444 -2.32804,0.476079 -3.37536,1.168636 -0.59118,0.390909 -1.49211,1.289179 -1.87786,1.872282 -0.69196,1.04598 -1.04615,2.058324 -1.1659,3.332325 -0.0444,0.473276 -0.0649,0.564613 -0.126,0.564613 -0.0609,0 -0.0774,-0.07133 -0.10004,-0.431763 z M 22.353505,12.424827 V 0.06682809 l 3.996574,0.01888146 c 4.24965,0.02008442 4.358775,0.02500092 5.6572,0.25454916 2.782449,0.49192198 4.624552,1.58208779 5.427228,3.21184999 0.598895,1.2160021 0.608141,2.868098 0.02365,4.2258993 -0.710272,1.6499983 -2.311325,2.800564 -4.498784,3.232965 -0.267915,0.05296 -0.536936,0.106369 -0.597825,0.118691 -0.08428,0.01705 -0.02085,0.04838 0.2657,0.131292 1.441906,0.417128 2.660355,1.382478 3.651389,2.892921 0.584521,0.890869 1.044523,1.821354 1.870773,3.784172 1.205836,2.864547 1.975486,4.317597 2.788115,5.263778 0.666193,0.775672 1.458002,1.237503 2.233126,1.302485 0.305085,0.02558 0.306021,0.02605 0.306021,0.159023 v 0.133362 l -0.697463,-0.02845 c -1.885653,-0.07696 -3.4084,-0.504127 -4.57226,-1.282623 C 37.766875,23.191261 36.994837,22.412362 36.705503,21.97084 36.18954,21.183478 35.774817,20.121059 35.510124,18.908561 35.434879,18.563883 35.274567,17.677109 35.153874,16.937949 34.79621,14.747497 34.60336,13.977296 34.221563,13.21449 33.791236,12.35472 33.139804,11.769379 32.317261,11.503392 31.873296,11.35983 31.604055,11.319755 30.789485,11.275993 29.909193,11.228711 29.383338,11.113466 28.799688,10.839962 27.118239,10.052004 25.968976,8.389427 25.279013,5.7467822 25.206717,5.4698734 25.136654,5.2324065 25.123319,5.2190689 c -0.01334,-0.013337 -0.02425,4.3830547 -0.02425,9.7697601 v 9.794003 H 23.726284 22.3535 Z m 9.181746,-1.436277 c 0.829338,-0.144623 1.502238,-0.483046 2.098315,-1.0553002 0.733505,-0.7041944 1.168406,-1.5839812 1.393741,-2.8194871 0.115156,-0.6313884 0.1382,-2.0813429 0.04152,-2.6127172 C 34.666795,2.291288 33.143304,0.95862888 30.457361,0.46720379 29.933854,0.37142618 29.77312,0.36501381 27.495029,0.34909272 l -2.40879,-0.0168416 0.02536,1.63049438 c 0.03932,2.5277243 0.246152,3.7365872 0.903274,5.279364 0.405456,0.9519233 0.840281,1.6286481 1.449226,2.25546 1.201134,1.2363685 2.597874,1.7478995 4.071148,1.4909805 z m 36.82867,1.461362 V 0.11699208 h 1.451669 1.451665 l 3.958054,9.15558482 c 2.176932,5.0355731 3.973186,9.1729391 3.991675,9.1941421 0.04001,0.04587 0.04974,-0.02641 0.195729,-1.452569 0.554493,-5.416424 1.749861,-9.7759423 3.461713,-12.6249026 1.598203,-2.6598264 3.72666,-4.13121976 6.158758,-4.25754243 l 0.542473,-0.0281914 V 12.44316 24.782806 H 88.247235 86.918817 L 86.907677,12.84784 86.896536,0.91287405 86.569333,1.069679 c -3.52057,1.6871911 -5.878089,6.9009825 -6.777714,14.989305 -0.265884,2.390538 -0.444217,5.553181 -0.44509,7.893508 l -3.09e-4,0.830314 H 79.179781 79.013342 L 74.157022,13.590184 C 71.48605,7.4342452 69.144734,2.0245208 68.95411,1.5685835 68.763475,1.1126409 68.592564,0.73900255 68.574295,0.73827031 c -0.01825,-5.2303e-4 -0.03321,5.40898699 -0.03321,12.02160069 0,11.993415 0,12.022935 -0.08857,12.022935 -0.08836,0 -0.08857,-0.0295 -0.08857,-12.332915 z m 50.970159,0 V 0.11699208 h 1.65622 c 1.45783,0 1.71872,0.0106699 2.17789,0.0891822 2.61845,0.44764733 4.95825,2.33286872 6.86942,5.53480752 0.32419,0.5431372 1.01893,1.8738141 1.34098,2.5684318 1.0453,2.2546024 1.89271,4.9600474 2.47929,7.9153554 0.20758,1.045855 0.49503,2.806809 0.55846,3.421189 0.0163,0.158311 0.0465,0.317731 0.067,0.354265 0.0205,0.03656 0.0379,-4.422245 0.0386,-9.9084 l 0.002,-9.97483089 h 1.28421 1.28422 V 12.449912 24.782826 h -1.28422 -1.28421 l -5.3e-4,-0.09964 c -4.4e-4,-0.0548 -0.0201,-0.607789 -0.0439,-1.228864 -0.2409,-6.298705 -1.85726,-12.78224 -4.23932,-17.0048128 -0.40158,-0.7118674 -1.2161,-1.9275297 -1.66157,-2.4798671 -1.33947,-1.6607989 -2.79523,-2.7531876 -4.37119,-3.28010568 -0.61382,-0.20523249 -1.41662,-0.35113224 -1.93205,-0.35113224 h -0.37201 V 12.560617 24.782826 h -1.28422 -1.28422 z m 20.2375,0 V 0.11699208 h 1.30636 1.30635 V 12.449912 24.782826 h -1.30635 -1.30636 z m 27.49997,0 V 0.11699208 h 1.30635 1.30636 l 4.5e-4,4.15156572 c 0,2.3353743 0.0193,4.3652977 0.0436,4.6401301 0.0896,1.0122602 0.34433,1.6560341 0.85992,2.1734011 0.76066,0.763292 1.91307,1.021733 4.03686,0.905316 3.11027,-0.170498 4.08286,-0.10118 5.02296,0.357995 0.49641,0.242462 0.96635,0.705606 1.20687,1.189453 l 0.16512,0.332125 4.4e-4,-6.8749928 3e-4,-6.87499312 h 1.35064 1.35064 V 12.449912 24.782826 h -1.35064 -1.35064 v -4.821083 c 0,-5.08797 -0.004,-5.194957 -0.20336,-5.794043 -0.32109,-0.963702 -0.98201,-1.571041 -1.9903,-1.828917 -0.77657,-0.19861 -0.83947,-0.200038 -4.62887,-0.104831 -1.61645,0.04059 -2.32307,-0.05933 -3.09695,-0.438034 -0.48716,-0.238393 -0.96159,-0.699231 -1.2187,-1.183768 l -0.17623,-0.332125 -0.0112,7.251403 -0.0112,7.251398 h -1.30623 -1.30622 z"
       id="path847" />
  </g>
</svg>
