<?xml version="1.0" encoding="UTF-8" standalone="no"?>
<svg
   xmlns:dc="http://purl.org/dc/elements/1.1/"
   xmlns:cc="http://creativecommons.org/ns#"
   xmlns:rdf="http://www.w3.org/1999/02/22-rdf-syntax-ns#"
   xmlns:svg="http://www.w3.org/2000/svg"
   xmlns="http://www.w3.org/2000/svg"
   xmlns:sodipodi="http://sodipodi.sourceforge.net/DTD/sodipodi-0.dtd"
   xmlns:inkscape="http://www.inkscape.org/namespaces/inkscape"
   width="25mm"
   height="25mm"
   viewBox="0 0 25 25"
   version="1.1"
   id="svg8"
   inkscape:version="1.0.2 (e86c8708, 2021-01-15)"
   sodipodi:docname="icon.svg">
  <defs
     id="defs2">
    <clipPath
       clipPathUnits="userSpaceOnUse"
       id="clipPath975">
      <rect
         style="fill:#00ff00;fill-opacity:1;fill-rule:evenodd;stroke:none;stroke-width:14.5521"
         id="rect977"
         width="25.694084"
         height="32.269005"
         x="84.86834"
         y="31.749931" />
    </clipPath>
    <clipPath
       clipPathUnits="userSpaceOnUse"
       id="clipPath981">
      <rect
         style="fill:#00ff00;fill-opacity:1;fill-rule:evenodd;stroke:none;stroke-width:38.2897"
         id="rect983"
         width="25"
         height="25"
         x="85.215378"
         y="34.258152" />
    </clipPath>
  </defs>
  <sodipodi:namedview
     id="base"
     pagecolor="#ffffff"
     bordercolor="#666666"
     borderopacity="1.0"
     inkscape:pageopacity="0.0"
     inkscape:pageshadow="2"
     inkscape:zoom="1.3520055"
     inkscape:cx="201.70888"
     inkscape:cy="190.96819"
     inkscape:document-units="mm"
     inkscape:current-layer="layer1"
     inkscape:document-rotation="0"
     showgrid="false"
     inkscape:window-width="1440"
     inkscape:window-height="847"
     inkscape:window-x="0"
     inkscape:window-y="25"
     inkscape:window-maximized="0" />
  <metadata
     id="metadata5">
    <rdf:RDF>
      <cc:Work
         rdf:about="">
        <dc:format>image/svg+xml</dc:format>
        <dc:type
           rdf:resource="http://purl.org/dc/dcmitype/StillImage" />
        <dc:title />
      </cc:Work>
    </rdf:RDF>
  </metadata>
  <g
     inkscape:label="Layer 1"
     inkscape:groupmode="layer"
     id="layer1">
    <path
       style="fill:#000000;stroke-width:0.0846667"
       id="path883"
       d="" />
    <path
       style="fill:#000000;stroke-width:0.0846667"
       id="path881"
       d="" />
    <path
       style="fill:#000000;stroke-width:0.0846667"
       id="path879"
       d="" />
    <path
       style="fill:#000000;stroke-width:0.0846667"
       id="path921"
       d="" />
    <path
       style="fill:#e4dede;fill-opacity:1;stroke-width:0.0442834"
       d="m -5.2961377,59.219706 c -0.201577,-0.061 -0.868599,-0.527394 -1.010492,-0.706548 -0.377326,-0.476414 -0.563201,-1.22459 -0.517964,-2.0849 0.07253,-1.379287 0.59817,-3.580744 1.359626,-5.694326 1.567339,-4.350475 4.463529,-10.483615 7.249876,-15.352765 0.523613,-0.915013 0.572323,-0.984738 0.695874,-0.996078 l 0.13285,-0.01219 5.2032945,12.291256 c 2.8618132,6.760192 5.2099382,12.310513 5.2180572,12.334044 0.0093,0.02694 -0.523017,0.04257 -1.439209,0.04221 l -1.453971,-5.23e-4 -1.9661522,-4.726697 c -1.081383,-2.599683 -1.972375,-4.734234 -1.979981,-4.74345 -0.02484,-0.03007 -0.868533,0.08651 -1.418023,0.19597 -1.7416465,0.346953 -3.1922075,1.049829 -4.31032447,2.088581 -1.086478,1.009358 -1.95933503,2.472534 -2.90693803,4.872926 -0.635107,1.608805 -1.216326,2.300106 -2.089628,2.485401 -0.26503,0.05623 -0.594472,0.05929 -0.766895,0.0071 z m 1.126982,-0.399607 c 0.525631,-0.251244 0.963754,-0.834984 1.334568,-1.778146 0.953749,-2.425843 1.687615,-3.784628 2.60355403,-4.820613 1.034395,-1.169965 2.40609797,-2.000361 4.08460147,-2.472732 0.49776,-0.140079 1.460949,-0.3286 1.962476,-0.38411 0.182723,-0.02024 0.27265,-0.04854 0.25935,-0.08162 -0.08564,-0.213119 -5.09328647,-11.84289 -5.11986147,-11.890381 -0.02265,-0.04043 -0.267181,0.394334 -0.722056,1.283803 -3.97262103,7.768095 -5.96573403,12.65132 -6.65813403,16.312747 -0.224077,1.184955 -0.186712,2.382928 0.09414,3.017983 0.212738,0.481038 0.409889,0.656149 0.949313,0.843164 0.384434,0.133285 0.896859,0.120559 1.212048,-0.03007 z m 44.8664827,0.392635 c -0.247039,-0.0775 -0.879252,-0.54047 -1.050903,-0.769584 -0.183178,-0.244502 -0.361078,-0.699979 -0.431253,-1.104147 -0.190764,-1.098706 0.250639,-3.469145 1.122021,-6.025473 1.426934,-4.186144 4.375255,-10.506801 7.349144,-15.755217 0.657592,-1.160545 0.674837,-1.185724 0.803665,-1.173511 0.13138,0.01245 0.142034,0.03698 5.27996,12.168264 2.831574,6.685681 5.178418,12.230515 5.215208,12.321847 l 0.0669,0.166062 h -1.451298 -1.451293 l -1.969242,-4.721691 c -1.083073,-2.596932 -1.993301,-4.730986 -2.022726,-4.742346 -0.08982,-0.03468 -1.286946,0.155471 -1.850691,0.293949 -2.090637,0.51355 -3.642117,1.505689 -4.794351,3.065898 -0.398664,0.539821 -0.667043,0.987113 -1.032102,1.720137 -0.278985,0.560199 -0.446828,0.940668 -1.077388,2.44225 -0.543246,1.293657 -1.0733,1.888914 -1.865813,2.095339 -0.287519,0.07489 -0.635143,0.08243 -0.839834,0.0182 z m 1.164028,-0.409022 c 0.594403,-0.304985 1.01633,-0.932314 1.493452,-2.220463 0.345335,-0.932341 0.986337,-2.285373 1.426407,-3.01087 1.462699,-2.411387 3.594201,-3.722931 6.774643,-4.168549 0.297276,-0.04163 0.534481,-0.08734 0.527122,-0.101531 -0.0074,-0.01417 -1.166785,-2.712035 -2.576508,-5.995211 -2.208015,-5.142366 -2.570916,-5.958756 -2.619333,-5.89254 -0.113963,0.155848 -2.89163,5.743607 -3.398064,6.835786 -2.253164,4.859191 -3.49859,8.315104 -3.939329,10.931184 -0.124963,0.741717 -0.154323,1.667514 -0.06843,2.157485 0.108503,0.618962 0.380682,1.132145 0.699072,1.318078 0.545221,0.318395 1.229825,0.378115 1.68097,0.146631 z m 97.507455,0.394523 c -0.093,-0.03316 -0.20255,-0.08869 -0.24356,-0.123414 -0.041,-0.03473 -0.16538,-0.114926 -0.27639,-0.178213 -0.43682,-0.249062 -0.76725,-0.756681 -0.90988,-1.397787 -0.0579,-0.260454 -0.0683,-0.475661 -0.0499,-1.042575 0.0311,-0.961071 0.23395,-2.092002 0.62995,-3.512437 1.14124,-4.093551 4.43136,-11.354242 7.95769,-17.561219 0.76663,-1.349417 0.67761,-1.352519 1.27025,0.0443 0.24543,0.578452 2.59622,6.128532 5.22395,12.33351 l 4.7777,11.281777 -1.45996,-0.01166 -1.45996,-0.01166 -1.34672,-3.232687 c -0.74069,-1.777974 -1.62861,-3.906484 -1.97316,-4.730018 l -0.62645,-1.497331 -0.29185,0.02939 c -0.48646,0.04901 -1.45857,0.236636 -1.97464,0.381144 -2.1573,0.604092 -3.77209,1.819241 -4.90629,3.692056 -0.33463,0.552531 -0.80381,1.504298 -1.15657,2.34617 -0.78518,1.873861 -0.91537,2.127343 -1.31629,2.562992 -0.13724,0.149127 -0.35644,0.335065 -0.48712,0.413185 -0.42657,0.255035 -1.0121,0.345991 -1.38081,0.21449 z m 0.99374,-0.313468 c 0.66503,-0.232143 1.13435,-0.864703 1.64951,-2.223252 0.646,-1.703588 1.44508,-3.214005 2.18584,-4.131706 0.3812,-0.472251 1.11639,-1.164729 1.60776,-1.514361 0.50794,-0.361409 1.49181,-0.860016 2.12384,-1.076316 0.65207,-0.223156 1.41901,-0.404476 2.16989,-0.513 0.35317,-0.05105 0.64969,-0.09988 0.65895,-0.108534 0.0196,-0.01825 -5.07785,-11.89203 -5.12726,-11.943324 -0.0366,-0.03797 -2.50411,4.852267 -3.25723,6.455365 -2.14321,4.562077 -3.45645,8.061119 -4.00547,10.672293 -0.22553,1.072618 -0.28344,1.574797 -0.25315,2.195113 0.0438,0.896021 0.23392,1.478972 0.59701,1.830151 0.35518,0.343543 1.17909,0.522059 1.65031,0.357571 z M 96.361517,59.14498 c -1.46686,-0.157715 -2.81086,-0.548179 -4.162635,-1.209328 -3.700394,-1.809863 -6.219765,-5.288694 -6.864266,-9.4784 -0.09944,-0.646499 -0.135486,-2.109848 -0.06938,-2.816929 0.147772,-1.580477 0.538462,-2.946532 1.265078,-4.423401 1.775615,-3.608962 5.153376,-6.104619 9.196943,-6.795147 2.41255,-0.411998 4.924603,-0.04142 7.188203,1.0604 3.58867,1.746817 6.04464,5.007586 6.83751,9.078139 0.67688,3.475092 -0.24084,7.127215 -2.50374,9.963758 -0.40651,0.509569 -1.40539,1.505824 -1.92176,1.916718 -1.34743,1.0722 -2.98505,1.880834 -4.73689,2.339015 -1.082783,0.283195 -1.684613,0.359929 -2.922703,0.372634 -0.62108,0.0064 -1.20894,0.0031 -1.30636,-0.0075 z m 3.859713,-0.521332 c 2.63055,-0.552552 4.54164,-2.069736 5.80543,-4.608831 1.47313,-2.959712 1.69868,-7.16935 0.56705,-10.583728 -1.33246,-4.020353 -4.14713,-7.214075 -7.336803,-8.324869 -1.02059,-0.355416 -2.15856,-0.507786 -3.16584,-0.423897 -1.19005,0.09911 -2.20863,0.380093 -3.227935,0.890436 -1.778518,0.890472 -3.189056,2.523357 -4.027811,4.662725 -0.603077,1.538237 -0.877323,3.099832 -0.880064,5.011226 -0.0031,2.302052 0.415125,4.282569 1.324829,6.270713 1.785678,3.902587 5.003031,6.710641 8.210651,7.166128 0.18267,0.02594 0.38195,0.05582 0.44284,0.06639 0.0609,0.01056 0.47937,0.01192 0.92995,0.0031 0.66381,-0.01313 0.9214,-0.03766 1.357703,-0.12932 z m -2.788493,-5.107019 c -0.11606,-1.849237 -1.01173,-3.660915 -2.38571,-4.825566 -1.1996,-1.016847 -2.599789,-1.597046 -4.054869,-1.680229 -0.436073,-0.02495 -0.498188,-0.03823 -0.498188,-0.106751 0,-0.06451 0.05255,-0.08289 0.298913,-0.104549 0.619536,-0.05447 1.049155,-0.121218 1.449264,-0.225176 2.89123,-0.751204 5.0074,-3.31405 5.18914,-6.284463 0.0241,-0.393425 0.0402,-0.467899 0.10159,-0.467899 0.0614,0 0.0814,0.09287 0.12609,0.586753 0.19589,2.163103 1.29501,4.024374 3.083913,5.222306 1.06774,0.71501 2.04267,1.037339 3.53429,1.168479 0.24637,0.02165 0.29891,0.04006 0.29891,0.104549 0,0.06853 -0.062,0.08178 -0.49818,0.106453 -1.1391,0.06444 -2.32804,0.476079 -3.37536,1.168636 -0.59118,0.390909 -1.492113,1.289179 -1.877863,1.872282 -0.69196,1.04598 -1.04615,2.058324 -1.1659,3.332325 -0.0444,0.473276 -0.0649,0.564613 -0.126,0.564613 -0.0609,0 -0.0774,-0.07133 -0.10004,-0.431763 z M 15.522233,46.682976 V 34.324977 l 3.996574,0.01888 c 4.249649,0.02008 4.358774,0.025 5.657199,0.25455 2.782449,0.491922 4.624552,1.582087 5.427228,3.21185 0.598895,1.216002 0.608141,2.868098 0.02365,4.225899 -0.710272,1.649998 -2.311325,2.800564 -4.498784,3.232965 -0.267915,0.05296 -0.536936,0.106369 -0.597825,0.118691 -0.08428,0.01705 -0.02085,0.04838 0.2657,0.131292 1.441906,0.417128 2.660355,1.382478 3.651389,2.892921 0.584521,0.890869 1.044523,1.821354 1.870773,3.784172 1.205836,2.864547 1.975486,4.317597 2.788115,5.263778 0.666193,0.775672 1.458002,1.237503 2.233126,1.302485 0.305085,0.02558 0.306021,0.02605 0.306021,0.159023 v 0.133362 l -0.697463,-0.02845 c -1.885653,-0.07696 -3.4084,-0.504127 -4.57226,-1.282623 -0.440074,-0.294363 -1.212112,-1.073262 -1.501446,-1.514784 -0.515963,-0.787362 -0.930686,-1.849781 -1.195379,-3.062279 -0.07524,-0.344678 -0.235557,-1.231452 -0.35625,-1.970612 -0.357664,-2.190452 -0.550514,-2.960653 -0.932311,-3.723459 -0.430327,-0.85977 -1.081759,-1.445111 -1.904302,-1.711098 -0.443965,-0.143562 -0.713206,-0.183637 -1.527776,-0.227399 -0.880291,-0.04728 -1.406146,-0.162527 -1.989796,-0.436031 -1.681449,-0.787958 -2.830712,-2.450535 -3.520675,-5.09318 -0.0723,-0.276909 -0.142359,-0.514376 -0.155694,-0.527713 -0.01334,-0.01334 -0.02425,4.383055 -0.02425,9.76976 v 9.794003 h -1.372785 -1.372784 z m 9.181745,-1.436277 c 0.829338,-0.144623 1.502238,-0.483046 2.098315,-1.0553 0.733505,-0.704194 1.168406,-1.583981 1.393741,-2.819487 0.115156,-0.631388 0.1382,-2.081343 0.04152,-2.612717 -0.402032,-2.209758 -1.925523,-3.542417 -4.611466,-4.033842 -0.523506,-0.09578 -0.68424,-0.10219 -2.962331,-0.118111 l -2.40879,-0.01684 0.02536,1.630494 c 0.03932,2.527725 0.246152,3.736588 0.903274,5.279364 0.405456,0.951924 0.840281,1.628649 1.449226,2.25546 1.201134,1.236369 2.597874,1.7479 4.071147,1.490981 z m 36.82867,1.461362 v -12.33292 h 1.451669 1.451665 l 3.958054,9.155585 c 2.176932,5.035573 3.973186,9.172939 3.991675,9.194142 0.04001,0.04587 0.04974,-0.02641 0.195729,-1.452569 0.554493,-5.416424 1.749861,-9.775942 3.461713,-12.624902 1.598203,-2.659827 3.72666,-4.13122 6.158758,-4.257543 l 0.542473,-0.02819 V 46.70131 59.040956 h -1.328422 -1.328418 l -0.01114,-11.934966 -0.01114,-11.934966 -0.327203,0.156805 c -3.52057,1.687191 -5.878089,6.900983 -6.777714,14.989305 -0.265884,2.390538 -0.444217,5.553181 -0.44509,7.893508 l -3.09e-4,0.830314 h -0.16644 -0.166439 l -4.85632,-11.192622 c -2.670972,-6.155938 -5.012288,-11.565663 -5.202912,-12.0216 -0.190635,-0.455943 -0.361546,-0.829581 -0.379815,-0.830313 -0.01825,-5.23e-4 -0.03321,5.408987 -0.03321,12.0216 0,11.993415 0,12.022935 -0.08857,12.022935 -0.08836,0 -0.08857,-0.0295 -0.08857,-12.332915 z m 50.970162,0 v -12.33292 h 1.65622 c 1.45783,0 1.71872,0.01067 2.17789,0.08918 2.61845,0.447648 4.95825,2.332869 6.86942,5.534808 0.32419,0.543137 1.01893,1.873814 1.34098,2.568432 1.0453,2.254602 1.89271,4.960047 2.47929,7.915355 0.20758,1.045855 0.49503,2.806809 0.55846,3.421189 0.0163,0.158311 0.0465,0.317731 0.067,0.354265 0.0205,0.03656 0.0379,-4.422245 0.0386,-9.9084 l 0.002,-9.974831 h 1.28421 1.28422 v 12.33292 12.332914 h -1.28422 -1.28421 l -5.3e-4,-0.09964 c -4.4e-4,-0.0548 -0.0201,-0.607789 -0.0439,-1.228864 -0.2409,-6.298705 -1.85726,-12.78224 -4.23932,-17.004812 -0.40158,-0.711868 -1.2161,-1.92753 -1.66157,-2.479868 -1.33947,-1.660798 -2.79523,-2.753187 -4.37119,-3.280105 -0.61382,-0.205233 -1.41662,-0.351133 -1.93205,-0.351133 h -0.37201 v 12.222213 12.222209 h -1.28422 -1.28422 z m 20.2375,0 v -12.33292 h 1.30636 1.30635 v 12.33292 12.332914 h -1.30635 -1.30636 z m 27.49998,0 v -12.33292 h 1.30635 1.30636 l 4.5e-4,4.151566 c 0,2.335374 0.0193,4.365298 0.0436,4.64013 0.0896,1.01226 0.34433,1.656034 0.85992,2.173401 0.76066,0.763292 1.91307,1.021733 4.03686,0.905316 3.11027,-0.170498 4.08286,-0.10118 5.02296,0.357995 0.49641,0.242462 0.96635,0.705606 1.20687,1.189453 l 0.16512,0.332125 4.4e-4,-6.874992 3e-4,-6.874994 h 1.35064 1.35064 v 12.33292 12.332914 h -1.35064 -1.35064 v -4.821083 c 0,-5.08797 -0.004,-5.194957 -0.20336,-5.794043 -0.32109,-0.963702 -0.98201,-1.571041 -1.9903,-1.828917 -0.77657,-0.19861 -0.83947,-0.200038 -4.62887,-0.104831 -1.61645,0.04059 -2.32307,-0.05933 -3.09695,-0.438034 -0.48716,-0.238393 -0.96159,-0.699231 -1.2187,-1.183768 l -0.17623,-0.332125 -0.0112,7.251403 -0.0112,7.251398 h -1.30623 -1.30622 z"
       id="path847"
       clip-path="url(#clipPath981)"
       transform="translate(-85.215378,-34.258152)"
       inkscape:export-filename="/Users/josefano/Desktop/fd/ara/frontend/public/favicon.png"
       inkscape:export-xdpi="260.09601"
       inkscape:export-ydpi="260.09601" />
  </g>
</svg>
